<?xml version="1.0" encoding="iso-8859-1"?>
<!-- Uploaded to: SVG Repo, www.svgrepo.com, Generator: SVG Repo Mixer Tools -->
<!DOCTYPE svg PUBLIC "-//W3C//DTD SVG 1.1//EN" "http://www.w3.org/Graphics/SVG/1.1/DTD/svg11.dtd">
<svg fill="#000000" height="800px" width="800px" version="1.1" id="Capa_1" xmlns="http://www.w3.org/2000/svg" xmlns:xlink="http://www.w3.org/1999/xlink" 
	 viewBox="0 0 475.641 475.641" xml:space="preserve">
<path d="M430.696,232.038h-21.621c7.462-8.397,12.007-19.442,12.007-31.532c0-26.209-21.322-47.531-47.531-47.531h-9.093
	c9.028-9.375,14.598-22.104,14.598-36.117v-7.646C379.055,48.992,330.063,0,269.843,0h-23.75c-4.418,0-8,3.582-8,8s3.582,8,8,8
	h12.084c16.652,0,30.2,13.548,30.2,30.2s-13.548,30.2-30.2,30.2h-49.494c-25.476,0-46.201,20.726-46.201,46.2
	c0,11.621,4.323,22.246,11.432,30.374h-5.927c-0.958,0-1.907,0.037-2.851,0.093L101.922,39.199
	c-0.021-0.039-0.043-0.078-0.065-0.117c-4.645-8.045-12.144-13.8-21.117-16.204c-8.973-2.404-18.344-1.17-26.389,3.475
	s-13.8,12.144-16.204,21.117c-2.404,8.972-1.17,18.344,3.428,26.308l88.924,158.261h-19.656c-4.418,0-8,3.582-8,8v66.941
	c0,4.418,3.582,8,8,8h19.771v152.661c0,4.418,3.582,8,8,8h264.311c4.418,0,8-3.582,8-8V314.979h19.771c4.418,0,8-3.582,8-8v-66.941
	C438.696,235.62,435.113,232.038,430.696,232.038z M405.081,200.507c0,17.387-14.145,31.531-31.531,31.531H248.045
	c-4.418,0-8,3.582-8,8v86.802c0,9.705-7.896,17.601-17.601,17.601c-9.704,0-17.6-7.896-17.6-17.601v-86.802c0-4.418-3.582-8-8-8
	h-0.001h-28.857c-17.387,0-31.531-14.146-31.531-31.532s14.145-31.531,31.531-31.531h158.939h0.012h46.612
	C390.937,168.975,405.081,183.12,405.081,200.507z M208.683,152.801c-16.653,0-30.201-13.548-30.201-30.2s13.548-30.2,30.201-30.2
	h49.494c25.475,0,46.2-20.726,46.2-46.2c0-9.831-3.088-18.957-8.343-26.455c38.689,11.343,67.021,47.157,67.021,89.467v7.646
	c0,19.911-16.198,36.111-36.105,36.117L208.683,152.801z M53.602,51.61c1.298-4.845,4.405-8.894,8.749-11.401
	c4.344-2.506,9.405-3.174,14.248-1.876c4.825,1.293,8.86,4.38,11.37,8.696l61.022,109.918
	c-12.326,5.397-21.933,15.872-26.167,28.768L55.478,65.858C52.97,61.515,52.304,56.455,53.602,51.61z M118.842,248.038h25.32
	c0.005,0,0.01,0.001,0.015,0.001c0.005,0,0.01-0.001,0.016-0.001h23.794h20.858v50.941h-70.003V248.038z M422.696,298.979h-46.65
	c-4.418,0-8,3.582-8,8s3.582,8,8,8h18.879v144.661H146.614V314.979h42.231v11.86c0,18.527,15.072,33.601,33.6,33.601
	s33.601-15.073,33.601-33.601v-11.86h68.8c4.418,0,8-3.582,8-8s-3.582-8-8-8h-68.8v-50.941H373.55h49.146V298.979z"/>
</svg>