<?xml version="1.0" encoding="iso-8859-1"?>
<!-- Uploaded to: SVG Repo, www.svgrepo.com, Generator: SVG Repo Mixer Tools -->
<!DOCTYPE svg PUBLIC "-//W3C//DTD SVG 1.1//EN" "http://www.w3.org/Graphics/SVG/1.1/DTD/svg11.dtd">
<svg fill="#000000" height="800px" width="800px" version="1.1" id="Capa_1" xmlns="http://www.w3.org/2000/svg" xmlns:xlink="http://www.w3.org/1999/xlink" 
	 viewBox="0 0 361.48 361.48" xml:space="preserve">
<g>
	<path d="M172.125,44.064c-3.046-4.089-6.667-7.7-10.764-10.735c-1.997-1.479-4.814-1.06-6.295,0.938
		c-1.479,1.997-1.06,4.815,0.938,6.295c3.389,2.51,6.385,5.498,8.905,8.881c5.532,7.422,8.457,16.257,8.457,25.548
		c0,2.485,2.015,4.5,4.5,4.5c2.485,0,4.5-2.015,4.5-4.5C182.365,63.746,178.824,53.052,172.125,44.064z"/>
	<path d="M142.841,24.642c-4.004-0.975-8.14-1.469-12.292-1.469c-2.485,0-4.5,2.015-4.5,4.5c0,2.485,2.015,4.5,4.5,4.5
		c3.437,0,6.856,0.408,10.165,1.213c0.357,0.087,0.715,0.129,1.067,0.129c2.027,0,3.868-1.38,4.369-3.436
		C146.737,27.664,145.257,25.229,142.841,24.642z"/>
	<path d="M255.639,0h-57.39c-13.376,0-26.007,6.417-33.981,16.985c-10.118-5.95-21.76-9.235-33.718-9.235
		c-20.906,0-40.853,10.023-53.358,26.811C68.593,46.095,64.049,59.819,64.049,74.25c0,8.225,1.546,16.412,4.495,24.039h-0.753
		c-1.383,0-2.69,0.637-3.543,1.726c-0.853,1.089-1.157,2.51-0.826,3.854L126.18,358.06c0.496,2.009,2.299,3.421,4.369,3.421
		c2.07,0,3.873-1.412,4.369-3.421l33.622-136.184c7.857,7.694,18.434,12.115,29.709,12.115h6.2v68.99
		c0,12.406,10.089,22.5,22.49,22.5c6.013,0,11.664-2.34,15.913-6.588c4.248-4.249,6.587-9.9,6.587-15.912v-68.99h6.2
		c23.462,0,42.55-19.092,42.55-42.56V42.551C298.189,19.088,279.101,0,255.639,0z M73.049,74.25
		c0-12.478,3.928-24.343,11.359-34.312c10.977-14.736,27.794-23.188,46.141-23.188c11.32,0,22.048,3.234,31.191,9.162
		c0.401,0.26,2.294,1.57,2.651,1.831c4.608,3.369,8.762,7.447,12.3,12.196c7.43,9.969,11.358,21.833,11.358,34.311
		c0,8.302-1.828,16.552-5.275,24.039H78.323C74.876,90.802,73.049,82.552,73.049,74.25z M73.537,107.289H187.56l-1.595,6.461H75.132
		L73.537,107.289z M130.549,338.206L77.354,122.75h106.389L130.549,338.206z M240.439,302.98c0,3.608-1.404,6.999-3.952,9.549
		c-2.548,2.548-5.939,3.951-9.548,3.951c-7.439,0-13.49-6.056-13.49-13.5v-68.99h26.99V302.98z M289.189,191.431
		c0,18.505-15.051,33.56-33.55,33.56h-57.39c-10.781,0-20.765-5.116-27.079-13.767l26.505-107.355
		c0.332-1.344,0.027-2.765-0.826-3.854c-0.853-1.089-2.16-1.726-3.543-1.726h-0.753c2.95-7.628,4.496-15.815,4.496-24.039
		c0-14.431-4.544-28.154-13.141-39.688c-3.525-4.731-7.641-8.925-12.202-12.509C178.006,13.921,187.844,9,198.249,9h57.39
		c18.499,0,33.55,15.051,33.55,33.551V191.431z"/>
	<path d="M277.192,92.883c-2.485,0-4.5,2.015-4.5,4.5v28.498c0,2.485,2.015,4.5,4.5,4.5c2.485,0,4.5-2.015,4.5-4.5V97.383
		C281.692,94.897,279.677,92.883,277.192,92.883z"/>
	<path d="M257.126,16.67c-2.46-0.348-4.738,1.365-5.086,3.825c-0.348,2.461,1.364,4.738,3.825,5.087
		c9.593,1.356,16.827,9.701,16.827,19.409v35.892c0,2.485,2.015,4.5,4.5,4.5c2.485,0,4.5-2.015,4.5-4.5V44.991
		C281.692,30.827,271.131,18.652,257.126,16.67z"/>
	<path d="M242.424,16.387h-5.749c-2.485,0-4.5,2.015-4.5,4.5c0,2.485,2.015,4.5,4.5,4.5h5.749c2.485,0,4.5-2.015,4.5-4.5
		C246.924,18.401,244.909,16.387,242.424,16.387z"/>
</g>
</svg>