<svg width="132" height="79" viewBox="0 0 132 79" fill="none" xmlns="http://www.w3.org/2000/svg">
<path fill-rule="evenodd" clip-rule="evenodd" d="M114.597 77.9943C119.771 75.746 124.91 73.5659 130.014 71.1728C131.114 70.6618 131.572 69.3931 131.044 68.3371C130.516 67.2725 129.196 66.8295 128.105 67.3405C123.027 69.7165 117.932 71.8796 112.793 74.1109C111.684 74.5963 111.191 75.8567 111.684 76.9212C112.186 77.9943 113.488 78.4797 114.597 77.9943Z" fill="white"/>
<path fill-rule="evenodd" clip-rule="evenodd" d="M76.5906 51.399C84.1059 35.6525 90.7941 19.5483 97.9573 3.65712C98.4413 2.57556 97.9309 1.32365 96.8221 0.855259C95.7045 0.386868 94.411 0.872322 93.9182 1.95388C86.7726 17.8196 80.1022 33.8981 72.5958 49.6105C72.0854 50.6835 72.5692 51.944 73.6692 52.4379C74.778 52.9319 76.0802 52.4635 76.5906 51.399Z" fill="white"/>
<path fill-rule="evenodd" clip-rule="evenodd" d="M12.1037 47.3137C9.70133 32.8362 6.87654 18.4012 4.64134 3.89815C4.45654 2.73995 3.33908 1.93955 2.14228 2.10987C0.936682 2.2802 0.109602 3.37014 0.285602 4.52834C2.5296 19.0485 5.3544 33.5005 7.7656 47.995C7.9592 49.1532 9.08548 49.9453 10.2823 49.758C11.4879 49.5706 12.2973 48.4804 12.1037 47.3137Z" fill="white"/>
</svg>
