<svg width="132" height="81" viewBox="0 0 132 81" fill="none" xmlns="http://www.w3.org/2000/svg">
<path fill-rule="evenodd" clip-rule="evenodd" d="M114.597 80.0454C119.771 77.7222 124.91 75.4694 130.014 72.9966C131.114 72.4686 131.572 71.1575 131.044 70.0663C130.516 68.9663 129.196 68.5086 128.105 69.0366C123.027 71.4918 117.932 73.727 112.793 76.0326C111.684 76.5342 111.191 77.8366 111.684 78.9366C112.186 80.0454 113.488 80.547 114.597 80.0454Z" fill="#17153B"/>
<path fill-rule="evenodd" clip-rule="evenodd" d="M76.5906 52.5638C84.1059 36.2926 90.7941 19.6518 97.9573 3.23096C98.4413 2.11336 97.9309 0.819725 96.8221 0.335728C95.7045 -0.148273 94.411 0.353359 93.9182 1.47096C86.7726 17.8654 80.1022 34.4797 72.5958 50.7157C72.0854 51.8245 72.5692 53.127 73.6692 53.6374C74.778 54.1478 76.0802 53.6638 76.5906 52.5638Z" fill="#17153B"/>
<path fill-rule="evenodd" clip-rule="evenodd" d="M12.1037 48.3424C9.70133 33.3824 6.87654 18.4664 4.64134 3.48001C4.45654 2.28321 3.33908 1.45614 2.14228 1.63214C0.936682 1.80814 0.109602 2.9344 0.285602 4.1312C2.5296 19.1352 5.3544 34.0688 7.7656 49.0464C7.9592 50.2432 9.08548 51.0617 10.2823 50.8681C11.4879 50.6745 12.2973 49.548 12.1037 48.3424Z" fill="#17153B"/>
</svg>
