<svg width="98" height="101" viewBox="0 0 98 101" fill="none" xmlns="http://www.w3.org/2000/svg">
<path fill-rule="evenodd" clip-rule="evenodd" d="M41.7933 25.077C33.1142 27.5121 27.4361 33.7216 21.8805 41.3742C20.9427 42.6665 18.7605 45.9089 17.7656 48.9148C17.0616 51.0401 16.9756 53.0511 18.1571 54.2692C19.1889 55.3345 20.6451 55.3555 22.2289 54.7461C25.6681 53.4235 29.7443 49.126 30.8842 47.7047C36.0167 41.3007 39.9065 33.6796 42.309 25.6561C42.8442 25.514 43.3926 25.3855 43.9531 25.2719C45.6424 24.9324 47.6868 24.7112 49.5906 24.9969C51.441 25.2741 53.1617 26.0299 54.2596 27.6585C56.5513 31.056 56.0812 36.4201 54.4138 42.0482C54.0512 43.2751 53.6301 44.5127 53.1661 45.7478C52.3644 45.9768 51.5304 46.3081 50.6758 46.7249C44.0455 49.9582 36.1661 58.2052 34.1276 61.0095C33.2199 62.258 31.5206 64.5312 30.8785 66.7275C30.4191 68.2979 30.4914 69.8292 31.6345 70.9812C32.6523 72.0082 34.0561 71.9979 35.5766 71.3621C38.8598 69.9889 42.7185 65.6746 43.8892 64.1935C46.5523 60.8272 50.838 53.6854 53.6536 46.3233C55.2758 45.9063 56.726 45.9712 57.8573 46.7649C59.4313 47.8681 59.8521 50.1519 59.6665 52.8937C59.6103 53.7206 59.4986 54.5885 59.3402 55.478C59.2802 55.5204 59.2221 55.5626 59.1621 55.605C54.3736 59.0382 49.7354 64.6884 47.8992 67.3676C47.0703 68.5761 45.7118 70.876 45.2943 73.0097C44.9974 74.5323 45.1779 75.9698 46.2508 76.939C47.3526 77.9345 48.6673 77.6017 49.9109 76.6755C51.6064 75.4105 53.1691 73.0476 53.7439 72.1658C55.3645 69.6837 58.7326 62.261 59.9288 55.9021C61.3503 54.9219 62.7792 54.1533 64.1432 53.7465C65.5824 53.3147 66.9476 53.2858 68.1434 53.86C71.0916 55.2792 71.5714 58.9541 70.9266 63.1073C70.7303 64.372 70.4277 65.6809 70.0499 66.989C68.7621 67.0482 67.351 67.5329 65.9274 68.3099C62.5735 70.142 59.135 73.5801 57.1139 76.5923C56.4162 77.6312 55.3021 79.4986 55.0032 81.2297C54.7864 82.4813 54.9885 83.6624 55.9674 84.4783C57.1563 85.4707 58.5263 85.2943 59.8484 84.5621C61.6866 83.5421 63.4315 81.433 64.3629 80.3287C66.1906 78.1596 68.9296 72.9706 70.531 67.6776C71.0574 67.7029 71.5551 67.8175 72.0171 68.0367C73.7567 68.859 74.9161 71.1381 75.0953 75.5235C75.1811 77.6469 75.0583 79.7744 74.5592 81.8338C73.8409 84.8023 72.6012 87.4371 71.1373 90.0546C71.0457 90.22 71.096 90.434 71.2518 90.5319C71.4068 90.6309 71.6088 90.577 71.7005 90.4116C73.1963 87.7373 74.4593 85.0414 75.1932 82.0084C75.7078 79.8826 75.8375 77.6864 75.7494 75.4951C75.5544 70.722 74.1752 68.2959 72.2825 67.4002C71.7985 67.1719 71.2783 67.0424 70.7302 66.999C71.092 65.7257 71.3816 64.4544 71.572 63.2227C72.2727 58.7106 71.6141 54.7669 68.4118 53.2262C66.0462 52.0885 63.0655 53.0363 60.0887 54.972C60.1957 54.2772 60.2752 53.5995 60.3193 52.9463C60.5255 49.9068 59.9613 47.4066 58.2179 46.1838C57.0563 45.3699 55.5857 45.2187 53.9409 45.5566C54.3453 44.4556 54.7152 43.3525 55.0384 42.2581C56.7762 36.3903 57.1809 30.7966 54.791 27.253C53.8236 25.8182 52.4248 24.986 50.8591 24.5544C48.5771 23.9281 45.9379 24.1641 43.8298 24.5889C43.3917 24.6768 42.9599 24.774 42.5362 24.8805C42.7932 23.982 43.0332 23.079 43.2524 22.1717C43.7963 19.9281 44.3632 17.2077 44.2655 14.6381C44.1978 12.8824 43.8216 11.1972 42.9344 9.76769C41.6659 7.71857 39.7723 6.9848 37.7406 6.96512C35.7748 6.94503 33.6785 7.60192 31.9291 8.34414C24.2723 11.5926 17.8736 17.8102 15.2467 26.2972C15.1906 26.4784 15.2842 26.6752 15.4558 26.7363C15.6265 26.7965 15.8123 26.6985 15.8682 26.5152C18.4338 18.2267 24.6945 12.1635 32.1732 8.99069C33.8477 8.27922 35.8537 7.64253 37.7367 7.66046C39.552 7.67895 41.2537 8.31674 42.3881 10.1487C43.418 11.8105 43.6905 13.8476 43.6076 15.9127C43.5229 18.0272 43.0617 20.1723 42.6184 21.9971C42.3676 23.0294 42.0924 24.0577 41.7933 25.077ZM69.8406 67.6931C68.7062 67.7931 67.474 68.2486 66.2279 68.9292C62.9613 70.7127 59.6157 74.0633 57.6472 76.9972C56.9905 77.9765 55.9272 79.7272 55.6466 81.3562C55.4761 82.3444 55.5984 83.2881 56.3705 83.9322C57.3434 84.7427 58.4629 84.5432 59.5452 83.944C61.312 82.9634 62.9796 80.9248 63.8752 79.8629C65.6389 77.769 68.2652 72.7995 69.8406 67.6931ZM59.1505 56.4579C54.5659 59.8627 50.19 65.2083 48.4274 67.7789C47.6378 68.9299 46.3323 71.1188 45.9354 73.1541C45.6892 74.41 45.7869 75.6094 46.6736 76.4091C47.5376 77.19 48.5589 76.8317 49.5333 76.105C51.1621 74.8908 52.654 72.6136 53.2065 71.7681C54.7412 69.4164 57.8776 62.5476 59.1505 56.4579ZM52.8518 46.5631C52.236 46.7711 51.5998 47.0408 50.9504 47.3572C44.4168 50.5431 36.6539 58.6731 34.6458 61.4354C33.7709 62.6387 32.1233 64.8199 31.504 66.9364C31.1212 68.24 31.1349 69.5202 32.0844 70.4777C32.6284 71.0259 33.3139 71.1815 34.0712 71.0786C34.8928 70.9684 35.7917 70.5608 36.7011 69.9963C39.5191 68.2473 42.4114 64.9798 43.3879 63.7446C45.9619 60.4911 50.0681 53.6689 52.8518 46.5631ZM41.5571 25.8682C33.252 28.3401 27.7741 34.395 22.3987 41.8001C21.4853 43.0598 19.3535 46.2182 18.3826 49.147C18.0697 50.0935 17.8765 51.0134 17.8977 51.8341C17.9182 52.5955 18.1233 53.2669 18.612 53.7702C19.171 54.3468 19.8859 54.5217 20.6805 54.4345C21.5386 54.3392 22.483 53.9456 23.4388 53.3922C26.3941 51.6804 29.4359 48.4373 30.3854 47.2526C35.371 41.0313 39.1717 33.6475 41.5571 25.8682Z" fill="#E7E5FF"/>
</svg>
